<svg width="36" height="15" viewBox="0 0 36 15" fill="none" xmlns="http://www.w3.org/2000/svg">
<path fill-rule="evenodd" clip-rule="evenodd" d="M35.0844 3.64887C35.0844 1.71887 33.5244 0.158875 31.5944 0.158875H18.9044V7.13887H31.5944C33.5144 7.13887 35.0744 5.56887 35.0744 3.64887H35.0844ZM35.0844 11.0489C35.0844 9.12887 33.5244 7.55887 31.6044 7.55887H18.9144V14.5389H31.6044C33.5244 14.5389 35.0844 12.9689 35.0844 11.0489ZM9.34443 7.55887V7.13887H18.6644V6.54887C18.6644 3.04887 15.8244 0.208875 12.3144 0.208875H6.39443C2.88443 0.208875 0.0444336 3.04887 0.0444336 6.54887V8.23887C0.0444336 11.7489 2.88443 14.5889 6.39443 14.5889H12.3144C15.8244 14.5889 18.6644 11.7489 18.6644 8.23887V7.55887H9.34443Z" fill="#1F1416"/>
</svg>
